# Made in Blockbench 4.12.3
mtllib angel.mtl

o cuboid
v 0 0.5 -0.875
v 0 0.5 0.875
v -0.5 1 0.5
v -0.5 1 -0.5
v -0.5 0 0.5
v -0.5 0 -0.5
v 0.5 1 0.5
v 0.5 1 -0.5
v 0.5 0 0.5
v 0.5 0 -0.5
vt 0 0.9359999999999999
vt 0.064 0.9359999999999999
vt 0.064 1
vt 0 1
vt 0.064 0.9359999999999999
vt 0.064 1
vt 0 1
vt 0 0.9359999999999999
vt 0.064 0.96
vt 0.032 1
vt 0 0.96
vt 0.032 0.96
vt 0.064 1
vt 0 1
vt 0.064 1
vt 0 1
vt 0.032 0.96
vt 0.064 0.96
vt 0.032 1
vt 0 0.96
vt 0 0.9359999999999999
vt 0 1
vt 0.064 1
vt 0.064 0.9359999999999999
vt 0 0.968
vt 0.04 0.9359999999999999
vt 0.04 1
vt 0.04 0.9359999999999999
vt 0 0.968
vt 0.04 1
vt 0.064 1
vt 0 1
vt 0 0.9359999999999999
vt 0.064 0.9359999999999999
vt 0.04 0.9359999999999999
vt 0 0.968
vt 0.04 1
vt 0 0.968
vt 0.04 0.9359999999999999
vt 0.04 1
vn 0 1 0
vn 0 -1 0
vn 0 -0.6 -0.8
vn 0 0.6 -0.8
vn 0 0.6 0.8
vn 0 -0.6 0.8
vn -1 0 0
vn -0.6 0 -0.8
vn -0.6 0 0.8
vn 1 0 0
vn 0.6 0 -0.8
vn 0.6 0 0.8
usemtl m_03eb2584-7ada-b964-4cb6-f89c0dd5c816
f 3/1/1 7/2/1 8/3/1 4/4/1
f 10/5/2 9/6/2 5/7/2 6/8/2
f 6/9/3 1/10/3 10/11/3
f 1/12/4 4/13/4 8/14/4
f 7/15/5 3/16/5 2/17/5
f 9/18/6 2/19/6 5/20/6
f 5/21/7 3/22/7 4/23/7 6/24/7
f 1/25/8 6/26/8 4/27/8
f 5/28/9 2/29/9 3/30/9
f 8/31/10 7/32/10 9/33/10 10/34/10
f 10/35/11 1/36/11 8/37/11
f 2/38/12 9/39/12 7/40/12